<?xml version="1.0" standalone="no"?>
<!DOCTYPE svg PUBLIC "-//W3C//DTD SVG 20010904//EN"
 "http://www.w3.org/TR/2001/REC-SVG-20010904/DTD/svg10.dtd">
<svg version="1.0" xmlns="http://www.w3.org/2000/svg"
 width="2000.000000pt" height="700.000000pt" viewBox="0 0 2000.000000 700.000000"
 preserveAspectRatio="xMidYMid meet">
<metadata>
Created by potrace 1.16, written by Peter Selinger 2001-2019
</metadata>
<g transform="translate(0.000000,700.000000) scale(0.100000,-0.100000)"
fill="#000000" stroke="none">
<path d="M253 6986 c-23 -8 -57 -23 -76 -35 -51 -31 -125 -115 -150 -169 l-22
-47 -3 -3344 -2 -3345 22 -23 21 -23 9957 0 9957 0 21 23 22 23 -2 3345 -3
3344 -22 48 c-31 66 -115 152 -182 184 l-56 28 -9720 2 c-7977 1 -9727 -1
-9762 -11z m19432 -167 c52 -15 119 -82 134 -134 8 -29 11 -680 11 -2317 l0
-2278 -6879 0 -6880 0 -37 -63 c-378 -628 -925 -1076 -1599 -1307 -1061 -364
-2239 -92 -3035 700 -74 74 -172 181 -217 238 -75 93 -233 323 -275 401 l-17
31 -361 0 -360 0 0 2278 c0 1595 3 2289 11 2316 14 50 73 113 124 131 34 12
1396 14 9690 15 7039 0 9661 -3 9690 -11z m-6083 -5263 c92 -20 173 -62 233
-121 57 -55 111 -155 121 -223 l7 -43 -119 3 -118 3 -8 30 c-11 45 -71 109
-123 134 -50 23 -162 29 -212 10 -126 -47 -193 -174 -193 -365 0 -137 26 -211
98 -284 69 -68 118 -85 222 -78 113 8 185 71 212 186 l13 52 118 0 119 0 -7
-42 c-24 -148 -118 -289 -232 -346 -100 -51 -268 -70 -388 -42 -174 39 -312
170 -371 353 -34 104 -38 274 -11 376 80 297 342 459 639 397z m3131 0 c178
-34 289 -140 304 -292 l6 -54 -115 0 -116 0 -10 43 c-18 71 -73 113 -162 124
-145 17 -243 -58 -208 -160 14 -40 63 -61 260 -113 195 -52 235 -69 296 -128
70 -67 86 -106 86 -211 0 -75 -4 -98 -24 -140 -67 -136 -210 -206 -425 -206
-164 0 -268 33 -359 112 -56 49 -103 143 -112 222 l-7 58 119 -3 119 -3 6 -35
c19 -114 133 -183 276 -166 119 14 173 56 173 135 0 81 -41 108 -260 166 -225
60 -304 103 -358 193 -24 42 -27 57 -27 137 0 81 3 95 30 144 83 151 282 220
508 177z m-8531 -27 c139 -30 218 -121 218 -254 0 -77 -26 -140 -77 -184 -25
-23 -50 -41 -54 -41 -22 0 -6 -17 27 -29 53 -19 118 -88 137 -146 21 -61 22
-169 2 -225 -33 -94 -119 -163 -240 -195 -47 -12 -122 -15 -362 -15 l-303 0 0
550 0 550 300 0 c183 0 320 -4 352 -11z m704 -186 c64 -109 122 -206 129 -216
11 -15 28 9 140 198 l127 215 134 0 c125 0 134 -1 125 -17 -5 -10 -97 -164
-205 -342 l-196 -325 0 -208 0 -208 -120 0 -120 0 0 214 0 215 -190 316 c-105
174 -195 326 -201 336 -9 18 -4 19 125 19 l135 0 117 -197z m3411 -170 l228
-367 3 367 2 367 115 0 115 0 0 -550 0 -550 -123 0 -123 0 -224 361 c-123 198
-228 363 -232 365 -4 3 -8 -159 -8 -360 l0 -366 -110 0 -110 0 0 550 0 550
119 0 119 0 229 -367z m5661 -175 c111 -299 202 -546 202 -550 0 -5 -55 -8
-122 -8 l-123 0 -40 118 -40 117 -210 0 -210 0 -40 -115 -40 -115 -123 -3
c-74 -1 -122 1 -120 7 1 5 95 253 208 550 l204 541 126 0 125 0 203 -542z"/>
<path d="M8480 6434 c-120 -12 -275 -37 -363 -59 -509 -130 -968 -507 -1221
-1005 -150 -297 -217 -608 -203 -945 21 -491 195 -895 537 -1249 342 -354 713
-543 1174 -597 124 -15 428 -6 550 15 401 70 752 253 1052 551 388 384 573
869 551 1440 -18 456 -158 823 -446 1166 -306 367 -717 597 -1182 664 -107 15
-369 26 -449 19z m295 -354 c373 -36 667 -170 936 -428 323 -309 475 -641 495
-1077 16 -349 -67 -664 -248 -937 -78 -118 -296 -337 -428 -430 -163 -116
-366 -207 -550 -246 -480 -104 -956 4 -1325 301 -97 79 -242 228 -312 321
-384 517 -403 1237 -47 1772 108 161 292 352 443 458 293 207 661 301 1036
266z"/>
<path d="M8534 5734 c-188 -67 -236 -327 -84 -457 176 -150 440 -29 440 203 0
187 -181 316 -356 254z"/>
<path d="M8193 5099 c-47 -14 -80 -60 -88 -121 -3 -29 -5 -217 -3 -418 l3
-365 113 -3 112 -3 0 -469 0 -470 295 0 295 0 0 470 0 469 113 3 112 3 0 410
c0 376 -2 413 -18 438 -41 63 -30 62 -487 64 -235 1 -429 -2 -447 -8z"/>
<path d="M12780 6430 c-461 -45 -869 -242 -1186 -572 -291 -304 -464 -640
-530 -1033 -21 -124 -29 -387 -15 -518 38 -372 171 -701 400 -987 69 -86 239
-258 326 -330 278 -228 610 -367 979 -411 124 -15 428 -6 550 15 606 105 1143
504 1414 1049 248 500 253 1172 13 1690 -104 225 -284 463 -475 627 -369 317
-741 460 -1231 474 -82 3 -193 1 -245 -4z m345 -350 c397 -38 716 -194 998
-489 304 -318 457 -734 433 -1171 -6 -110 -29 -269 -44 -309 -6 -18 -33 -8
-327 122 -176 79 -411 183 -523 232 -112 49 -198 91 -193 93 7 2 11 46 11 118
l0 114 -276 0 -277 0 -106 47 c-58 26 -108 48 -111 50 -9 8 37 80 87 133 57
62 144 114 227 136 110 29 326 11 449 -37 28 -11 53 -16 57 -12 6 6 90 339 90
356 0 8 -112 46 -205 69 -76 19 -118 22 -270 22 -156 1 -191 -2 -265 -22 -230
-62 -455 -221 -563 -399 -18 -29 -37 -52 -44 -50 -25 5 -623 272 -623 279 0
19 153 198 251 293 218 210 449 336 725 394 180 38 325 47 499 31z m-1396
-1177 c134 -59 239 -109 232 -111 -7 -2 -11 -41 -11 -118 l0 -114 90 0 90 0 0
-75 0 -75 -90 0 -90 0 0 -115 0 -115 104 0 104 0 21 -87 c75 -298 301 -543
594 -644 195 -67 432 -77 631 -25 112 29 226 78 226 98 0 7 -16 88 -36 180
l-37 166 -61 -23 c-144 -54 -349 -71 -471 -40 -144 37 -252 120 -310 238 -19
40 -38 87 -41 105 l-6 32 348 0 349 -1 495 -219 c272 -121 496 -224 498 -229
10 -29 -152 -234 -280 -356 -225 -214 -466 -349 -738 -411 -224 -51 -476 -54
-698 -8 -513 106 -993 531 -1166 1033 -65 188 -80 279 -80 511 0 174 3 220 22
305 27 123 50 205 60 205 4 0 117 -48 251 -107z"/>
<path d="M17170 6433 c-488 -37 -895 -229 -1235 -584 -306 -319 -482 -685
-535 -1109 -5 -46 -10 -152 -10 -235 0 -236 28 -412 99 -625 156 -465 547
-903 1007 -1126 253 -123 527 -184 824 -184 549 0 1021 204 1415 611 157 163
256 304 346 494 208 441 233 1019 67 1495 -166 472 -567 903 -1030 1107 -278
122 -629 180 -948 156z m457 -373 c210 -38 427 -130 606 -257 105 -75 315
-285 390 -390 80 -112 159 -268 201 -394 104 -310 106 -720 6 -1023 -127 -382
-427 -718 -814 -913 -537 -270 -1220 -191 -1683 195 -299 250 -486 550 -565
909 -30 135 -33 471 -5 608 43 210 116 388 232 560 283 423 675 670 1151 725
117 13 352 4 481 -20z"/>
<path d="M17110 5501 c-316 -69 -542 -293 -624 -621 l-24 -95 -71 -3 c-39 -2
-71 -6 -71 -10 0 -9 363 -372 372 -372 4 0 91 84 193 188 l185 187 -66 3 -66
3 6 37 c9 59 63 157 107 197 118 107 351 136 507 63 67 -31 143 -111 179 -188
56 -119 68 -185 68 -390 0 -164 -3 -194 -23 -265 -35 -122 -77 -199 -142 -266
-80 -81 -148 -112 -263 -117 -251 -12 -410 95 -433 292 l-7 56 -243 0 c-200 0
-244 -2 -244 -14 0 -30 49 -204 73 -257 148 -333 495 -521 886 -480 137 14
233 41 347 96 278 134 468 393 530 721 25 137 16 395 -20 529 -98 363 -341
609 -688 696 -122 30 -353 35 -468 10z"/>
<path d="M3215 6339 c-423 -39 -808 -173 -1149 -400 -166 -110 -289 -213 -441
-370 -429 -442 -677 -964 -736 -1552 -17 -177 -7 -549 20 -706 95 -554 325
-992 737 -1405 437 -437 929 -682 1519 -757 147 -19 502 -16 660 5 587 78
1080 325 1520 761 328 324 546 700 655 1129 164 644 94 1338 -190 1895 -120
236 -277 448 -480 651 -451 452 -966 693 -1600 750 -132 11 -383 11 -515 -1z
m470 -470 c502 -43 932 -243 1295 -600 290 -286 483 -619 573 -989 47 -190 61
-318 61 -540 0 -382 -69 -678 -226 -980 -250 -480 -742 -890 -1268 -1055 -393
-124 -878 -124 -1267 -1 -347 109 -629 288 -908 577 -398 412 -595 894 -595
1459 0 569 199 1054 606 1479 133 139 240 230 385 327 378 253 849 366 1344
323z"/>
<path d="M2599 4536 c-149 -31 -268 -97 -381 -208 -65 -65 -85 -93 -127 -180
-79 -165 -106 -346 -81 -544 26 -207 82 -327 214 -459 103 -102 184 -149 322
-186 108 -29 327 -32 429 -5 187 49 319 143 436 309 27 39 48 71 47 72 -11 10
-308 165 -315 165 -6 0 -18 -17 -27 -39 -24 -53 -101 -126 -160 -152 -100 -44
-244 -34 -329 22 -94 62 -145 182 -154 364 -13 250 57 424 194 483 155 67 315
19 401 -118 20 -33 40 -59 44 -60 4 0 82 39 173 86 l165 86 -22 41 c-36 65
-174 199 -248 240 -110 60 -224 88 -380 93 -90 2 -157 -1 -201 -10z"/>
<path d="M4105 4536 c-157 -31 -252 -83 -371 -201 -74 -73 -98 -106 -132 -175
-71 -143 -86 -217 -86 -420 -1 -152 2 -186 22 -259 89 -328 327 -519 678 -546
242 -18 469 65 620 227 49 54 124 157 124 172 0 6 -306 166 -318 166 -5 0 -17
-19 -28 -41 -25 -56 -88 -119 -149 -149 -43 -21 -64 -24 -150 -24 -108 0 -138
9 -210 62 -51 36 -101 128 -120 219 -19 87 -19 269 -1 354 27 127 93 216 191
260 67 30 202 33 255 5 64 -33 101 -68 137 -125 20 -31 38 -58 40 -60 6 -8
343 163 343 174 0 7 -23 44 -50 83 -89 127 -228 221 -389 264 -99 26 -308 33
-406 14z"/>
<path d="M7790 1225 l0 -125 150 0 c161 0 193 7 224 52 21 30 21 117 0 147
-30 42 -72 51 -229 51 l-145 0 0 -125z"/>
<path d="M7790 780 l0 -150 163 0 c136 0 169 3 203 19 102 47 99 206 -6 259
-40 20 -58 22 -202 22 l-158 0 0 -150z"/>
<path d="M17577 1077 c-37 -106 -67 -195 -67 -199 0 -11 270 -10 270 1 0 11
-118 360 -128 377 -4 8 -34 -63 -75 -179z"/>
</g>
</svg>
